# xmcd
#
# Track frame offsets: 
#        150
#        15782
#        36088
#        54095
#        72725
#        92083
#        112743
#        133324
#        150598
#        172948
#        194032
#        217899
#        238822
#
# Disc length: 3511 seconds
#
# Revision: 0
# Processed by: cddbd v1.5.1PL2 Copyright (c) Steve Scherf et al.
# Submitted via: ExactAudioCopy v0.95a5
#
DISCID=a80db50d
DTITLE=Peter Green Splinter Group - Reaching The Cold 100
DYEAR=2003
DGENRE=Blues
TTITLE0=Ain't Nothin' Gonna Change It
TTITLE1=Look Out for Yourself
TTITLE2=Cool Down
TTITLE3=Dangerous Man
TTITLE4=Needs Must the Devil Drives
TTITLE5=Must Be a Fool
TTITLE6=Don't Walk Away
TTITLE7=Can You Tell Me Why (A.K.A. Legal Fee Blues)
TTITLE8=Spiritual Thief
TTITLE9=I'm Ready for You
TTITLE10=Smile
TTITLE11=Nice Girl Like You
TTITLE12=When Somebody Cares
EXTD=
EXTT0=
EXTT1=
EXTT2=
EXTT3=
EXTT4=
EXTT5=
EXTT6=
EXTT7=
EXTT8=
EXTT9=
EXTT10=
EXTT11=
EXTT12=
PLAYORDER=
